<mxfile host="app.diagrams.net" modified="2024-01-24T07:59:49.900Z" agent="Mozilla/5.0 (Windows NT 10.0; Win64; x64) AppleWebKit/537.36 (KHTML, like Gecko) Chrome/120.0.0.0 Safari/537.36" etag="zoJRKDW3GvVjt9fZudKV" version="23.0.0" type="github" pages="2">
  <diagram name="UserFlow" id="venkFiTbn3XSBIaCa58a">
    <mxGraphModel dx="1434" dy="780" grid="1" gridSize="10" guides="1" tooltips="1" connect="1" arrows="1" fold="1" page="1" pageScale="1" pageWidth="1169" pageHeight="827" math="0" shadow="0">
      <root>
        <mxCell id="0" />
        <mxCell id="1" parent="0" />
        <mxCell id="D05H-xrxmOFu8XA64sJw-32" style="edgeStyle=orthogonalEdgeStyle;rounded=0;orthogonalLoop=1;jettySize=auto;html=1;exitX=1;exitY=0.5;exitDx=0;exitDy=0;entryX=0.5;entryY=0;entryDx=0;entryDy=0;" edge="1" parent="1" source="D05H-xrxmOFu8XA64sJw-6" target="D05H-xrxmOFu8XA64sJw-8">
          <mxGeometry relative="1" as="geometry" />
        </mxCell>
        <mxCell id="D05H-xrxmOFu8XA64sJw-34" style="edgeStyle=orthogonalEdgeStyle;rounded=0;orthogonalLoop=1;jettySize=auto;html=1;exitX=0.5;exitY=1;exitDx=0;exitDy=0;entryX=0.5;entryY=0;entryDx=0;entryDy=0;" edge="1" parent="1" source="D05H-xrxmOFu8XA64sJw-6" target="D05H-xrxmOFu8XA64sJw-33">
          <mxGeometry relative="1" as="geometry" />
        </mxCell>
        <mxCell id="w05tkLSWkTf0ITQg4wOF-2" style="edgeStyle=orthogonalEdgeStyle;rounded=0;orthogonalLoop=1;jettySize=auto;html=1;exitX=1;exitY=0.5;exitDx=0;exitDy=0;entryX=0;entryY=0.5;entryDx=0;entryDy=0;" edge="1" parent="1" source="D05H-xrxmOFu8XA64sJw-6" target="w05tkLSWkTf0ITQg4wOF-1">
          <mxGeometry relative="1" as="geometry" />
        </mxCell>
        <mxCell id="D05H-xrxmOFu8XA64sJw-6" value="메인화면" style="rounded=0;whiteSpace=wrap;html=1;" vertex="1" parent="1">
          <mxGeometry x="120" y="95" width="120" height="60" as="geometry" />
        </mxCell>
        <mxCell id="D05H-xrxmOFu8XA64sJw-12" style="edgeStyle=orthogonalEdgeStyle;rounded=0;orthogonalLoop=1;jettySize=auto;html=1;exitX=0.5;exitY=1;exitDx=0;exitDy=0;" edge="1" parent="1" source="D05H-xrxmOFu8XA64sJw-8" target="D05H-xrxmOFu8XA64sJw-10">
          <mxGeometry relative="1" as="geometry" />
        </mxCell>
        <mxCell id="D05H-xrxmOFu8XA64sJw-26" style="edgeStyle=orthogonalEdgeStyle;rounded=0;orthogonalLoop=1;jettySize=auto;html=1;exitX=1;exitY=0.5;exitDx=0;exitDy=0;entryX=0;entryY=0.5;entryDx=0;entryDy=0;" edge="1" parent="1" source="D05H-xrxmOFu8XA64sJw-8" target="D05H-xrxmOFu8XA64sJw-25">
          <mxGeometry relative="1" as="geometry" />
        </mxCell>
        <mxCell id="D05H-xrxmOFu8XA64sJw-30" style="edgeStyle=orthogonalEdgeStyle;rounded=0;orthogonalLoop=1;jettySize=auto;html=1;exitX=0.5;exitY=1;exitDx=0;exitDy=0;entryX=0.5;entryY=0;entryDx=0;entryDy=0;" edge="1" parent="1" source="D05H-xrxmOFu8XA64sJw-8" target="D05H-xrxmOFu8XA64sJw-29">
          <mxGeometry relative="1" as="geometry" />
        </mxCell>
        <mxCell id="D05H-xrxmOFu8XA64sJw-61" style="edgeStyle=orthogonalEdgeStyle;rounded=0;orthogonalLoop=1;jettySize=auto;html=1;exitX=0.5;exitY=1;exitDx=0;exitDy=0;dashed=1;entryX=0.5;entryY=0;entryDx=0;entryDy=0;" edge="1" parent="1" source="D05H-xrxmOFu8XA64sJw-8" target="D05H-xrxmOFu8XA64sJw-62">
          <mxGeometry relative="1" as="geometry">
            <mxPoint x="140" y="400" as="targetPoint" />
          </mxGeometry>
        </mxCell>
        <mxCell id="D05H-xrxmOFu8XA64sJw-8" value="게임 씬" style="rounded=0;whiteSpace=wrap;html=1;" vertex="1" parent="1">
          <mxGeometry x="520" y="165" width="120" height="60" as="geometry" />
        </mxCell>
        <mxCell id="D05H-xrxmOFu8XA64sJw-18" style="edgeStyle=orthogonalEdgeStyle;rounded=0;orthogonalLoop=1;jettySize=auto;html=1;exitX=0.5;exitY=1;exitDx=0;exitDy=0;entryX=0.5;entryY=0;entryDx=0;entryDy=0;" edge="1" parent="1" source="D05H-xrxmOFu8XA64sJw-9" target="D05H-xrxmOFu8XA64sJw-17">
          <mxGeometry relative="1" as="geometry" />
        </mxCell>
        <mxCell id="D05H-xrxmOFu8XA64sJw-22" style="edgeStyle=orthogonalEdgeStyle;rounded=0;orthogonalLoop=1;jettySize=auto;html=1;exitX=0.5;exitY=1;exitDx=0;exitDy=0;" edge="1" parent="1" source="D05H-xrxmOFu8XA64sJw-9" target="D05H-xrxmOFu8XA64sJw-19">
          <mxGeometry relative="1" as="geometry" />
        </mxCell>
        <mxCell id="D05H-xrxmOFu8XA64sJw-24" style="edgeStyle=orthogonalEdgeStyle;rounded=0;orthogonalLoop=1;jettySize=auto;html=1;exitX=0.5;exitY=1;exitDx=0;exitDy=0;entryX=0.5;entryY=0;entryDx=0;entryDy=0;" edge="1" parent="1" source="D05H-xrxmOFu8XA64sJw-9" target="D05H-xrxmOFu8XA64sJw-23">
          <mxGeometry relative="1" as="geometry" />
        </mxCell>
        <mxCell id="D05H-xrxmOFu8XA64sJw-72" style="edgeStyle=orthogonalEdgeStyle;rounded=0;orthogonalLoop=1;jettySize=auto;html=1;exitX=0;exitY=0.5;exitDx=0;exitDy=0;entryX=1;entryY=0.5;entryDx=0;entryDy=0;dashed=1;" edge="1" parent="1" source="D05H-xrxmOFu8XA64sJw-9" target="D05H-xrxmOFu8XA64sJw-62">
          <mxGeometry relative="1" as="geometry" />
        </mxCell>
        <mxCell id="D05H-xrxmOFu8XA64sJw-9" value="캐릭터" style="shape=parallelogram;perimeter=parallelogramPerimeter;whiteSpace=wrap;html=1;fixedSize=1;" vertex="1" parent="1">
          <mxGeometry x="400" y="400" width="120" height="60" as="geometry" />
        </mxCell>
        <mxCell id="D05H-xrxmOFu8XA64sJw-13" style="edgeStyle=orthogonalEdgeStyle;rounded=0;orthogonalLoop=1;jettySize=auto;html=1;exitX=0.5;exitY=1;exitDx=0;exitDy=0;" edge="1" parent="1" source="D05H-xrxmOFu8XA64sJw-10" target="D05H-xrxmOFu8XA64sJw-11">
          <mxGeometry relative="1" as="geometry" />
        </mxCell>
        <mxCell id="D05H-xrxmOFu8XA64sJw-16" style="edgeStyle=orthogonalEdgeStyle;rounded=0;orthogonalLoop=1;jettySize=auto;html=1;exitX=0.5;exitY=1;exitDx=0;exitDy=0;entryX=0.5;entryY=0;entryDx=0;entryDy=0;" edge="1" parent="1" source="D05H-xrxmOFu8XA64sJw-10" target="D05H-xrxmOFu8XA64sJw-15">
          <mxGeometry relative="1" as="geometry" />
        </mxCell>
        <mxCell id="D05H-xrxmOFu8XA64sJw-10" value="맵" style="shape=parallelogram;perimeter=parallelogramPerimeter;whiteSpace=wrap;html=1;fixedSize=1;" vertex="1" parent="1">
          <mxGeometry x="825" y="400" width="120" height="60" as="geometry" />
        </mxCell>
        <mxCell id="D05H-xrxmOFu8XA64sJw-11" value="장애물들" style="shape=parallelogram;perimeter=parallelogramPerimeter;whiteSpace=wrap;html=1;fixedSize=1;" vertex="1" parent="1">
          <mxGeometry x="940" y="550" width="120" height="60" as="geometry" />
        </mxCell>
        <mxCell id="D05H-xrxmOFu8XA64sJw-14" style="edgeStyle=orthogonalEdgeStyle;rounded=0;orthogonalLoop=1;jettySize=auto;html=1;exitX=0.5;exitY=1;exitDx=0;exitDy=0;entryX=0.558;entryY=-0.017;entryDx=0;entryDy=0;entryPerimeter=0;" edge="1" parent="1" source="D05H-xrxmOFu8XA64sJw-8" target="D05H-xrxmOFu8XA64sJw-9">
          <mxGeometry relative="1" as="geometry" />
        </mxCell>
        <mxCell id="D05H-xrxmOFu8XA64sJw-41" style="edgeStyle=orthogonalEdgeStyle;rounded=0;orthogonalLoop=1;jettySize=auto;html=1;exitX=0.5;exitY=1;exitDx=0;exitDy=0;entryX=0.5;entryY=0;entryDx=0;entryDy=0;" edge="1" parent="1" source="D05H-xrxmOFu8XA64sJw-15" target="D05H-xrxmOFu8XA64sJw-38">
          <mxGeometry relative="1" as="geometry" />
        </mxCell>
        <mxCell id="D05H-xrxmOFu8XA64sJw-15" value="매니저님" style="shape=parallelogram;perimeter=parallelogramPerimeter;whiteSpace=wrap;html=1;fixedSize=1;" vertex="1" parent="1">
          <mxGeometry x="690" y="550" width="120" height="60" as="geometry" />
        </mxCell>
        <mxCell id="D05H-xrxmOFu8XA64sJw-21" style="edgeStyle=orthogonalEdgeStyle;rounded=0;orthogonalLoop=1;jettySize=auto;html=1;exitX=0.5;exitY=1;exitDx=0;exitDy=0;entryX=0.5;entryY=0;entryDx=0;entryDy=0;" edge="1" parent="1" source="D05H-xrxmOFu8XA64sJw-17" target="D05H-xrxmOFu8XA64sJw-20">
          <mxGeometry relative="1" as="geometry" />
        </mxCell>
        <mxCell id="D05H-xrxmOFu8XA64sJw-17" value="이동" style="ellipse;whiteSpace=wrap;html=1;" vertex="1" parent="1">
          <mxGeometry x="285" y="540" width="75" height="50" as="geometry" />
        </mxCell>
        <mxCell id="D05H-xrxmOFu8XA64sJw-19" value="충돌" style="ellipse;whiteSpace=wrap;html=1;" vertex="1" parent="1">
          <mxGeometry x="385" y="540" width="75" height="50" as="geometry" />
        </mxCell>
        <mxCell id="D05H-xrxmOFu8XA64sJw-20" value="점프" style="ellipse;whiteSpace=wrap;html=1;" vertex="1" parent="1">
          <mxGeometry x="285" y="630" width="75" height="50" as="geometry" />
        </mxCell>
        <mxCell id="D05H-xrxmOFu8XA64sJw-23" value="사망" style="ellipse;whiteSpace=wrap;html=1;" vertex="1" parent="1">
          <mxGeometry x="495" y="540" width="75" height="50" as="geometry" />
        </mxCell>
        <mxCell id="D05H-xrxmOFu8XA64sJw-28" style="edgeStyle=orthogonalEdgeStyle;rounded=0;orthogonalLoop=1;jettySize=auto;html=1;exitX=1;exitY=0.5;exitDx=0;exitDy=0;entryX=0;entryY=0.5;entryDx=0;entryDy=0;" edge="1" parent="1" source="D05H-xrxmOFu8XA64sJw-25" target="D05H-xrxmOFu8XA64sJw-27">
          <mxGeometry relative="1" as="geometry" />
        </mxCell>
        <mxCell id="D05H-xrxmOFu8XA64sJw-47" style="edgeStyle=orthogonalEdgeStyle;rounded=0;orthogonalLoop=1;jettySize=auto;html=1;exitX=1;exitY=0.5;exitDx=0;exitDy=0;entryX=0;entryY=0.5;entryDx=0;entryDy=0;" edge="1" parent="1" source="D05H-xrxmOFu8XA64sJw-25" target="D05H-xrxmOFu8XA64sJw-46">
          <mxGeometry relative="1" as="geometry" />
        </mxCell>
        <mxCell id="D05H-xrxmOFu8XA64sJw-59" style="edgeStyle=orthogonalEdgeStyle;rounded=0;orthogonalLoop=1;jettySize=auto;html=1;exitX=1;exitY=0.5;exitDx=0;exitDy=0;entryX=0;entryY=0.5;entryDx=0;entryDy=0;" edge="1" parent="1" source="D05H-xrxmOFu8XA64sJw-25" target="D05H-xrxmOFu8XA64sJw-58">
          <mxGeometry relative="1" as="geometry" />
        </mxCell>
        <mxCell id="D05H-xrxmOFu8XA64sJw-25" value="UI" style="shape=process;whiteSpace=wrap;html=1;backgroundOutline=1;" vertex="1" parent="1">
          <mxGeometry x="750" y="170" width="120" height="60" as="geometry" />
        </mxCell>
        <mxCell id="D05H-xrxmOFu8XA64sJw-27" value="남은시간" style="ellipse;whiteSpace=wrap;html=1;" vertex="1" parent="1">
          <mxGeometry x="990" y="105" width="75" height="50" as="geometry" />
        </mxCell>
        <mxCell id="D05H-xrxmOFu8XA64sJw-29" value="효과음" style="shape=parallelogram;perimeter=parallelogramPerimeter;whiteSpace=wrap;html=1;fixedSize=1;" vertex="1" parent="1">
          <mxGeometry x="570" y="400" width="120" height="60" as="geometry" />
        </mxCell>
        <mxCell id="D05H-xrxmOFu8XA64sJw-71" style="edgeStyle=orthogonalEdgeStyle;rounded=0;orthogonalLoop=1;jettySize=auto;html=1;exitX=1;exitY=0.5;exitDx=0;exitDy=0;entryX=0;entryY=0.5;entryDx=0;entryDy=0;" edge="1" parent="1" source="D05H-xrxmOFu8XA64sJw-33" target="D05H-xrxmOFu8XA64sJw-70">
          <mxGeometry relative="1" as="geometry" />
        </mxCell>
        <mxCell id="D05H-xrxmOFu8XA64sJw-33" value="환경설정" style="rounded=0;whiteSpace=wrap;html=1;" vertex="1" parent="1">
          <mxGeometry x="120" y="200" width="120" height="60" as="geometry" />
        </mxCell>
        <mxCell id="D05H-xrxmOFu8XA64sJw-55" style="edgeStyle=orthogonalEdgeStyle;rounded=0;orthogonalLoop=1;jettySize=auto;html=1;exitX=0.5;exitY=1;exitDx=0;exitDy=0;entryX=0.5;entryY=0;entryDx=0;entryDy=0;" edge="1" parent="1" source="D05H-xrxmOFu8XA64sJw-38" target="D05H-xrxmOFu8XA64sJw-49">
          <mxGeometry relative="1" as="geometry" />
        </mxCell>
        <mxCell id="D05H-xrxmOFu8XA64sJw-56" style="edgeStyle=orthogonalEdgeStyle;rounded=0;orthogonalLoop=1;jettySize=auto;html=1;exitX=0.5;exitY=1;exitDx=0;exitDy=0;entryX=0.5;entryY=0;entryDx=0;entryDy=0;" edge="1" parent="1" source="D05H-xrxmOFu8XA64sJw-38" target="D05H-xrxmOFu8XA64sJw-48">
          <mxGeometry relative="1" as="geometry" />
        </mxCell>
        <mxCell id="D05H-xrxmOFu8XA64sJw-57" style="edgeStyle=orthogonalEdgeStyle;rounded=0;orthogonalLoop=1;jettySize=auto;html=1;exitX=0.5;exitY=1;exitDx=0;exitDy=0;entryX=0.5;entryY=0;entryDx=0;entryDy=0;" edge="1" parent="1" source="D05H-xrxmOFu8XA64sJw-38" target="D05H-xrxmOFu8XA64sJw-50">
          <mxGeometry relative="1" as="geometry" />
        </mxCell>
        <mxCell id="D05H-xrxmOFu8XA64sJw-38" value="TIL" style="ellipse;whiteSpace=wrap;html=1;" vertex="1" parent="1">
          <mxGeometry x="650" y="660" width="75" height="50" as="geometry" />
        </mxCell>
        <mxCell id="D05H-xrxmOFu8XA64sJw-42" value="가시" style="ellipse;whiteSpace=wrap;html=1;" vertex="1" parent="1">
          <mxGeometry x="890" y="660" width="75" height="50" as="geometry" />
        </mxCell>
        <mxCell id="D05H-xrxmOFu8XA64sJw-44" value="배게" style="ellipse;whiteSpace=wrap;html=1;" vertex="1" parent="1">
          <mxGeometry x="970" y="660" width="75" height="50" as="geometry" />
        </mxCell>
        <mxCell id="D05H-xrxmOFu8XA64sJw-45" value="유튜브" style="ellipse;whiteSpace=wrap;html=1;" vertex="1" parent="1">
          <mxGeometry x="1050" y="660" width="75" height="50" as="geometry" />
        </mxCell>
        <mxCell id="D05H-xrxmOFu8XA64sJw-46" value="리트라이&lt;br&gt;버튼" style="ellipse;whiteSpace=wrap;html=1;" vertex="1" parent="1">
          <mxGeometry x="990" y="280" width="75" height="50" as="geometry" />
        </mxCell>
        <mxCell id="D05H-xrxmOFu8XA64sJw-48" value="ㅡ 모양" style="ellipse;whiteSpace=wrap;html=1;" vertex="1" parent="1">
          <mxGeometry x="547" y="750" width="75" height="50" as="geometry" />
        </mxCell>
        <mxCell id="D05H-xrxmOFu8XA64sJw-49" value="I 모양" style="ellipse;whiteSpace=wrap;html=1;" vertex="1" parent="1">
          <mxGeometry x="650" y="750" width="75" height="50" as="geometry" />
        </mxCell>
        <mxCell id="D05H-xrxmOFu8XA64sJw-50" value="ㅁ 모양" style="ellipse;whiteSpace=wrap;html=1;" vertex="1" parent="1">
          <mxGeometry x="750" y="750" width="75" height="50" as="geometry" />
        </mxCell>
        <mxCell id="D05H-xrxmOFu8XA64sJw-58" value="게임오버" style="ellipse;whiteSpace=wrap;html=1;" vertex="1" parent="1">
          <mxGeometry x="990" y="170" width="75" height="50" as="geometry" />
        </mxCell>
        <mxCell id="D05H-xrxmOFu8XA64sJw-60" value="게임클리어" style="ellipse;whiteSpace=wrap;html=1;" vertex="1" parent="1">
          <mxGeometry x="990" y="225" width="75" height="50" as="geometry" />
        </mxCell>
        <mxCell id="D05H-xrxmOFu8XA64sJw-65" style="edgeStyle=orthogonalEdgeStyle;rounded=0;orthogonalLoop=1;jettySize=auto;html=1;exitX=0.5;exitY=1;exitDx=0;exitDy=0;entryX=0.5;entryY=0;entryDx=0;entryDy=0;" edge="1" parent="1" source="D05H-xrxmOFu8XA64sJw-62" target="D05H-xrxmOFu8XA64sJw-64">
          <mxGeometry relative="1" as="geometry" />
        </mxCell>
        <mxCell id="D05H-xrxmOFu8XA64sJw-67" style="edgeStyle=orthogonalEdgeStyle;rounded=0;orthogonalLoop=1;jettySize=auto;html=1;exitX=0.5;exitY=1;exitDx=0;exitDy=0;entryX=0.5;entryY=0;entryDx=0;entryDy=0;" edge="1" parent="1" source="D05H-xrxmOFu8XA64sJw-62" target="D05H-xrxmOFu8XA64sJw-66">
          <mxGeometry relative="1" as="geometry" />
        </mxCell>
        <mxCell id="D05H-xrxmOFu8XA64sJw-69" style="edgeStyle=orthogonalEdgeStyle;rounded=0;orthogonalLoop=1;jettySize=auto;html=1;exitX=0.5;exitY=1;exitDx=0;exitDy=0;entryX=0.5;entryY=0;entryDx=0;entryDy=0;" edge="1" parent="1" source="D05H-xrxmOFu8XA64sJw-62" target="D05H-xrxmOFu8XA64sJw-68">
          <mxGeometry relative="1" as="geometry" />
        </mxCell>
        <mxCell id="D05H-xrxmOFu8XA64sJw-62" value="아이템" style="shape=parallelogram;perimeter=parallelogramPerimeter;whiteSpace=wrap;html=1;fixedSize=1;" vertex="1" parent="1">
          <mxGeometry x="80" y="400" width="120" height="60" as="geometry" />
        </mxCell>
        <mxCell id="D05H-xrxmOFu8XA64sJw-64" value="레드불&lt;br&gt;(이속증가)" style="ellipse;whiteSpace=wrap;html=1;" vertex="1" parent="1">
          <mxGeometry x="160" y="540" width="75" height="50" as="geometry" />
        </mxCell>
        <mxCell id="D05H-xrxmOFu8XA64sJw-66" value="우산&lt;br&gt;(방어)" style="ellipse;whiteSpace=wrap;html=1;" vertex="1" parent="1">
          <mxGeometry x="102.5" y="610" width="75" height="50" as="geometry" />
        </mxCell>
        <mxCell id="D05H-xrxmOFu8XA64sJw-68" value="이의있소&lt;br&gt;(쌓인거 없애기)" style="ellipse;whiteSpace=wrap;html=1;" vertex="1" parent="1">
          <mxGeometry x="20" y="540" width="75" height="50" as="geometry" />
        </mxCell>
        <mxCell id="D05H-xrxmOFu8XA64sJw-70" value="소리조절" style="ellipse;whiteSpace=wrap;html=1;" vertex="1" parent="1">
          <mxGeometry x="342.5" y="200" width="75" height="50" as="geometry" />
        </mxCell>
        <mxCell id="w05tkLSWkTf0ITQg4wOF-1" value="캐릭터 선택" style="rounded=0;whiteSpace=wrap;html=1;" vertex="1" parent="1">
          <mxGeometry x="320" y="30" width="120" height="60" as="geometry" />
        </mxCell>
      </root>
    </mxGraphModel>
  </diagram>
  <diagram id="-eazrlQPGXH2bSGVKuQV" name="페이지-2">
    <mxGraphModel dx="1434" dy="780" grid="1" gridSize="10" guides="1" tooltips="1" connect="1" arrows="1" fold="1" page="1" pageScale="1" pageWidth="1169" pageHeight="827" math="0" shadow="0">
      <root>
        <mxCell id="0" />
        <mxCell id="1" parent="0" />
        <mxCell id="Ej0qOqugrmB95WgVIae_-1" value="Object" style="shape=process;whiteSpace=wrap;html=1;backgroundOutline=1;" vertex="1" parent="1">
          <mxGeometry x="50" y="20" width="120" height="60" as="geometry" />
        </mxCell>
        <mxCell id="Ej0qOqugrmB95WgVIae_-21" style="edgeStyle=orthogonalEdgeStyle;rounded=0;orthogonalLoop=1;jettySize=auto;html=1;exitX=0.5;exitY=1;exitDx=0;exitDy=0;entryX=0.5;entryY=0;entryDx=0;entryDy=0;" edge="1" parent="1" source="Ej0qOqugrmB95WgVIae_-2" target="Ej0qOqugrmB95WgVIae_-20">
          <mxGeometry relative="1" as="geometry" />
        </mxCell>
        <mxCell id="Ej0qOqugrmB95WgVIae_-23" style="edgeStyle=orthogonalEdgeStyle;rounded=0;orthogonalLoop=1;jettySize=auto;html=1;exitX=0.5;exitY=1;exitDx=0;exitDy=0;entryX=0.5;entryY=0;entryDx=0;entryDy=0;" edge="1" parent="1" source="Ej0qOqugrmB95WgVIae_-2" target="Ej0qOqugrmB95WgVIae_-22">
          <mxGeometry relative="1" as="geometry" />
        </mxCell>
        <mxCell id="Ej0qOqugrmB95WgVIae_-25" style="edgeStyle=orthogonalEdgeStyle;rounded=0;orthogonalLoop=1;jettySize=auto;html=1;exitX=0.5;exitY=1;exitDx=0;exitDy=0;" edge="1" parent="1" source="Ej0qOqugrmB95WgVIae_-2" target="Ej0qOqugrmB95WgVIae_-24">
          <mxGeometry relative="1" as="geometry" />
        </mxCell>
        <mxCell id="Ej0qOqugrmB95WgVIae_-2" value="Input" style="shape=parallelogram;perimeter=parallelogramPerimeter;whiteSpace=wrap;html=1;fixedSize=1;" vertex="1" parent="1">
          <mxGeometry x="1120" y="410" width="120" height="60" as="geometry" />
        </mxCell>
        <mxCell id="Ej0qOqugrmB95WgVIae_-18" style="edgeStyle=orthogonalEdgeStyle;rounded=0;orthogonalLoop=1;jettySize=auto;html=1;exitX=0.5;exitY=1;exitDx=0;exitDy=0;entryX=0.5;entryY=0;entryDx=0;entryDy=0;" edge="1" parent="1" source="Ej0qOqugrmB95WgVIae_-3" target="Ej0qOqugrmB95WgVIae_-2">
          <mxGeometry relative="1" as="geometry" />
        </mxCell>
        <mxCell id="Ej0qOqugrmB95WgVIae_-26" style="edgeStyle=orthogonalEdgeStyle;rounded=0;orthogonalLoop=1;jettySize=auto;html=1;exitX=0.5;exitY=1;exitDx=0;exitDy=0;entryX=0.5;entryY=0;entryDx=0;entryDy=0;" edge="1" parent="1" source="Ej0qOqugrmB95WgVIae_-3" target="Ej0qOqugrmB95WgVIae_-27">
          <mxGeometry relative="1" as="geometry">
            <mxPoint x="900" y="410" as="targetPoint" />
          </mxGeometry>
        </mxCell>
        <mxCell id="Ej0qOqugrmB95WgVIae_-3" value="Player" style="shape=process;whiteSpace=wrap;html=1;backgroundOutline=1;" vertex="1" parent="1">
          <mxGeometry x="950" y="310" width="120" height="60" as="geometry" />
        </mxCell>
        <mxCell id="Ej0qOqugrmB95WgVIae_-5" value="Component" style="rounded=1;whiteSpace=wrap;html=1;" vertex="1" parent="1">
          <mxGeometry x="180" y="20" width="120" height="60" as="geometry" />
        </mxCell>
        <mxCell id="Ej0qOqugrmB95WgVIae_-20" value="Movement" style="shape=parallelogram;perimeter=parallelogramPerimeter;whiteSpace=wrap;html=1;fixedSize=1;" vertex="1" parent="1">
          <mxGeometry x="1150" y="610" width="120" height="60" as="geometry" />
        </mxCell>
        <mxCell id="Ej0qOqugrmB95WgVIae_-22" value="Animation" style="shape=parallelogram;perimeter=parallelogramPerimeter;whiteSpace=wrap;html=1;fixedSize=1;" vertex="1" parent="1">
          <mxGeometry x="1030" y="610" width="120" height="60" as="geometry" />
        </mxCell>
        <mxCell id="Ej0qOqugrmB95WgVIae_-24" value="Audio" style="shape=parallelogram;perimeter=parallelogramPerimeter;whiteSpace=wrap;html=1;fixedSize=1;" vertex="1" parent="1">
          <mxGeometry x="910" y="610" width="120" height="60" as="geometry" />
        </mxCell>
        <mxCell id="Ej0qOqugrmB95WgVIae_-30" style="edgeStyle=orthogonalEdgeStyle;rounded=0;orthogonalLoop=1;jettySize=auto;html=1;exitX=0.5;exitY=1;exitDx=0;exitDy=0;entryX=0.5;entryY=0;entryDx=0;entryDy=0;" edge="1" parent="1" source="Ej0qOqugrmB95WgVIae_-27" target="Ej0qOqugrmB95WgVIae_-29">
          <mxGeometry relative="1" as="geometry" />
        </mxCell>
        <mxCell id="Ej0qOqugrmB95WgVIae_-32" style="edgeStyle=orthogonalEdgeStyle;rounded=0;orthogonalLoop=1;jettySize=auto;html=1;exitX=0;exitY=0.5;exitDx=0;exitDy=0;entryX=0.5;entryY=0;entryDx=0;entryDy=0;dashed=1;" edge="1" parent="1" source="Ej0qOqugrmB95WgVIae_-27" target="Ej0qOqugrmB95WgVIae_-31">
          <mxGeometry relative="1" as="geometry" />
        </mxCell>
        <mxCell id="Ej0qOqugrmB95WgVIae_-27" value="Collision" style="shape=parallelogram;perimeter=parallelogramPerimeter;whiteSpace=wrap;html=1;fixedSize=1;" vertex="1" parent="1">
          <mxGeometry x="830" y="410" width="120" height="60" as="geometry" />
        </mxCell>
        <mxCell id="Ej0qOqugrmB95WgVIae_-29" value="Die" style="shape=parallelogram;perimeter=parallelogramPerimeter;whiteSpace=wrap;html=1;fixedSize=1;" vertex="1" parent="1">
          <mxGeometry x="820" y="500" width="120" height="60" as="geometry" />
        </mxCell>
        <mxCell id="Ej0qOqugrmB95WgVIae_-31" value="Item" style="shape=parallelogram;perimeter=parallelogramPerimeter;whiteSpace=wrap;html=1;fixedSize=1;" vertex="1" parent="1">
          <mxGeometry x="680" y="500" width="120" height="60" as="geometry" />
        </mxCell>
        <mxCell id="Ej0qOqugrmB95WgVIae_-35" style="edgeStyle=orthogonalEdgeStyle;rounded=0;orthogonalLoop=1;jettySize=auto;html=1;exitX=0.5;exitY=1;exitDx=0;exitDy=0;entryX=0.5;entryY=0;entryDx=0;entryDy=0;" edge="1" parent="1" source="Ej0qOqugrmB95WgVIae_-33" target="Ej0qOqugrmB95WgVIae_-34">
          <mxGeometry relative="1" as="geometry" />
        </mxCell>
        <mxCell id="Ej0qOqugrmB95WgVIae_-38" style="edgeStyle=orthogonalEdgeStyle;rounded=0;orthogonalLoop=1;jettySize=auto;html=1;exitX=0.5;exitY=1;exitDx=0;exitDy=0;entryX=0.5;entryY=0;entryDx=0;entryDy=0;" edge="1" parent="1" source="Ej0qOqugrmB95WgVIae_-33" target="Ej0qOqugrmB95WgVIae_-39">
          <mxGeometry relative="1" as="geometry">
            <mxPoint x="220" y="510" as="targetPoint" />
          </mxGeometry>
        </mxCell>
        <mxCell id="Ej0qOqugrmB95WgVIae_-41" style="edgeStyle=orthogonalEdgeStyle;rounded=0;orthogonalLoop=1;jettySize=auto;html=1;exitX=0.5;exitY=1;exitDx=0;exitDy=0;entryX=0.5;entryY=0;entryDx=0;entryDy=0;" edge="1" parent="1" source="Ej0qOqugrmB95WgVIae_-33" target="Ej0qOqugrmB95WgVIae_-40">
          <mxGeometry relative="1" as="geometry" />
        </mxCell>
        <mxCell id="Ej0qOqugrmB95WgVIae_-33" value="Spawner" style="shape=process;whiteSpace=wrap;html=1;backgroundOutline=1;" vertex="1" parent="1">
          <mxGeometry x="320" y="380" width="120" height="60" as="geometry" />
        </mxCell>
        <mxCell id="Ej0qOqugrmB95WgVIae_-37" style="edgeStyle=orthogonalEdgeStyle;rounded=0;orthogonalLoop=1;jettySize=auto;html=1;exitX=0.5;exitY=1;exitDx=0;exitDy=0;entryX=0.5;entryY=0;entryDx=0;entryDy=0;" edge="1" parent="1" source="Ej0qOqugrmB95WgVIae_-34" target="Ej0qOqugrmB95WgVIae_-36">
          <mxGeometry relative="1" as="geometry" />
        </mxCell>
        <mxCell id="Ej0qOqugrmB95WgVIae_-34" value="TIL&lt;br&gt;(Prefab)" style="shape=process;whiteSpace=wrap;html=1;backgroundOutline=1;" vertex="1" parent="1">
          <mxGeometry x="370" y="510" width="120" height="60" as="geometry" />
        </mxCell>
        <mxCell id="Ej0qOqugrmB95WgVIae_-36" value="Oncollider" style="shape=parallelogram;perimeter=parallelogramPerimeter;whiteSpace=wrap;html=1;fixedSize=1;" vertex="1" parent="1">
          <mxGeometry x="410" y="610" width="120" height="60" as="geometry" />
        </mxCell>
        <mxCell id="Ej0qOqugrmB95WgVIae_-39" value="Chaser" style="shape=parallelogram;perimeter=parallelogramPerimeter;whiteSpace=wrap;html=1;fixedSize=1;" vertex="1" parent="1">
          <mxGeometry x="160" y="510" width="120" height="60" as="geometry" />
        </mxCell>
        <mxCell id="Ej0qOqugrmB95WgVIae_-42" style="edgeStyle=orthogonalEdgeStyle;rounded=0;orthogonalLoop=1;jettySize=auto;html=1;exitX=0;exitY=0.5;exitDx=0;exitDy=0;entryX=1;entryY=0.5;entryDx=0;entryDy=0;" edge="1" parent="1" source="Ej0qOqugrmB95WgVIae_-40" target="Ej0qOqugrmB95WgVIae_-34">
          <mxGeometry relative="1" as="geometry" />
        </mxCell>
        <mxCell id="Ej0qOqugrmB95WgVIae_-40" value="TIL" style="shape=parallelogram;perimeter=parallelogramPerimeter;whiteSpace=wrap;html=1;fixedSize=1;" vertex="1" parent="1">
          <mxGeometry x="510" y="510" width="120" height="60" as="geometry" />
        </mxCell>
        <mxCell id="Ej0qOqugrmB95WgVIae_-47" style="edgeStyle=orthogonalEdgeStyle;rounded=0;orthogonalLoop=1;jettySize=auto;html=1;exitX=0.5;exitY=1;exitDx=0;exitDy=0;" edge="1" parent="1" source="Ej0qOqugrmB95WgVIae_-43" target="Ej0qOqugrmB95WgVIae_-44">
          <mxGeometry relative="1" as="geometry" />
        </mxCell>
        <mxCell id="Ej0qOqugrmB95WgVIae_-48" style="edgeStyle=orthogonalEdgeStyle;rounded=0;orthogonalLoop=1;jettySize=auto;html=1;exitX=0.5;exitY=1;exitDx=0;exitDy=0;entryX=0.5;entryY=0;entryDx=0;entryDy=0;" edge="1" parent="1" source="Ej0qOqugrmB95WgVIae_-43" target="Ej0qOqugrmB95WgVIae_-46">
          <mxGeometry relative="1" as="geometry" />
        </mxCell>
        <mxCell id="Ej0qOqugrmB95WgVIae_-43" value="UI" style="shape=process;whiteSpace=wrap;html=1;backgroundOutline=1;" vertex="1" parent="1">
          <mxGeometry x="520" y="20" width="120" height="60" as="geometry" />
        </mxCell>
        <mxCell id="Ej0qOqugrmB95WgVIae_-44" value="Text&lt;br&gt;(남은 시간)" style="shape=process;whiteSpace=wrap;html=1;backgroundOutline=1;" vertex="1" parent="1">
          <mxGeometry x="410" y="120" width="120" height="60" as="geometry" />
        </mxCell>
        <mxCell id="Ej0qOqugrmB95WgVIae_-50" style="edgeStyle=orthogonalEdgeStyle;rounded=0;orthogonalLoop=1;jettySize=auto;html=1;exitX=0.5;exitY=1;exitDx=0;exitDy=0;entryX=0.5;entryY=0;entryDx=0;entryDy=0;" edge="1" parent="1" source="Ej0qOqugrmB95WgVIae_-46" target="Ej0qOqugrmB95WgVIae_-49">
          <mxGeometry relative="1" as="geometry" />
        </mxCell>
        <mxCell id="Ej0qOqugrmB95WgVIae_-52" style="edgeStyle=orthogonalEdgeStyle;rounded=0;orthogonalLoop=1;jettySize=auto;html=1;exitX=0.5;exitY=1;exitDx=0;exitDy=0;entryX=0.5;entryY=0;entryDx=0;entryDy=0;" edge="1" parent="1" source="Ej0qOqugrmB95WgVIae_-46" target="Ej0qOqugrmB95WgVIae_-51">
          <mxGeometry relative="1" as="geometry" />
        </mxCell>
        <mxCell id="Ej0qOqugrmB95WgVIae_-54" style="edgeStyle=orthogonalEdgeStyle;rounded=0;orthogonalLoop=1;jettySize=auto;html=1;exitX=0.5;exitY=1;exitDx=0;exitDy=0;entryX=0.5;entryY=0;entryDx=0;entryDy=0;" edge="1" parent="1" source="Ej0qOqugrmB95WgVIae_-46" target="Ej0qOqugrmB95WgVIae_-53">
          <mxGeometry relative="1" as="geometry" />
        </mxCell>
        <mxCell id="Ej0qOqugrmB95WgVIae_-46" value="Button&lt;br&gt;(환경설정)" style="shape=process;whiteSpace=wrap;html=1;backgroundOutline=1;" vertex="1" parent="1">
          <mxGeometry x="600" y="120" width="120" height="60" as="geometry" />
        </mxCell>
        <mxCell id="Ej0qOqugrmB95WgVIae_-49" value="Button&lt;br&gt;(재시작)" style="shape=process;whiteSpace=wrap;html=1;backgroundOutline=1;" vertex="1" parent="1">
          <mxGeometry x="540" y="210" width="120" height="60" as="geometry" />
        </mxCell>
        <mxCell id="Ej0qOqugrmB95WgVIae_-51" value="Bar&lt;br&gt;(음량 조절)" style="shape=process;whiteSpace=wrap;html=1;backgroundOutline=1;" vertex="1" parent="1">
          <mxGeometry x="680" y="210" width="120" height="60" as="geometry" />
        </mxCell>
        <mxCell id="Ej0qOqugrmB95WgVIae_-53" value="Button&lt;br&gt;(메인매뉴로)" style="shape=process;whiteSpace=wrap;html=1;backgroundOutline=1;" vertex="1" parent="1">
          <mxGeometry x="820" y="210" width="120" height="60" as="geometry" />
        </mxCell>
        <mxCell id="Ej0qOqugrmB95WgVIae_-57" style="edgeStyle=orthogonalEdgeStyle;rounded=0;orthogonalLoop=1;jettySize=auto;html=1;exitX=0.5;exitY=1;exitDx=0;exitDy=0;entryX=0.5;entryY=0;entryDx=0;entryDy=0;" edge="1" parent="1" source="Ej0qOqugrmB95WgVIae_-55" target="Ej0qOqugrmB95WgVIae_-56">
          <mxGeometry relative="1" as="geometry" />
        </mxCell>
        <mxCell id="Ej0qOqugrmB95WgVIae_-59" style="edgeStyle=orthogonalEdgeStyle;rounded=0;orthogonalLoop=1;jettySize=auto;html=1;exitX=0.5;exitY=1;exitDx=0;exitDy=0;entryX=0.5;entryY=0;entryDx=0;entryDy=0;" edge="1" parent="1" source="Ej0qOqugrmB95WgVIae_-55" target="Ej0qOqugrmB95WgVIae_-58">
          <mxGeometry relative="1" as="geometry" />
        </mxCell>
        <mxCell id="Ej0qOqugrmB95WgVIae_-61" style="edgeStyle=orthogonalEdgeStyle;rounded=0;orthogonalLoop=1;jettySize=auto;html=1;exitX=0.5;exitY=1;exitDx=0;exitDy=0;entryX=0.5;entryY=0;entryDx=0;entryDy=0;" edge="1" parent="1" source="Ej0qOqugrmB95WgVIae_-55" target="Ej0qOqugrmB95WgVIae_-60">
          <mxGeometry relative="1" as="geometry" />
        </mxCell>
        <mxCell id="Ej0qOqugrmB95WgVIae_-55" value="Level" style="shape=process;whiteSpace=wrap;html=1;backgroundOutline=1;" vertex="1" parent="1">
          <mxGeometry x="1180" y="20" width="120" height="60" as="geometry" />
        </mxCell>
        <mxCell id="Ej0qOqugrmB95WgVIae_-56" value="장애물" style="shape=process;whiteSpace=wrap;html=1;backgroundOutline=1;" vertex="1" parent="1">
          <mxGeometry x="1240" y="140" width="120" height="60" as="geometry" />
        </mxCell>
        <mxCell id="Ej0qOqugrmB95WgVIae_-63" style="edgeStyle=orthogonalEdgeStyle;rounded=0;orthogonalLoop=1;jettySize=auto;html=1;exitX=0.5;exitY=1;exitDx=0;exitDy=0;entryX=0.5;entryY=0;entryDx=0;entryDy=0;" edge="1" parent="1" source="Ej0qOqugrmB95WgVIae_-58" target="Ej0qOqugrmB95WgVIae_-62">
          <mxGeometry relative="1" as="geometry" />
        </mxCell>
        <mxCell id="Ej0qOqugrmB95WgVIae_-58" value="Platform" style="shape=process;whiteSpace=wrap;html=1;backgroundOutline=1;" vertex="1" parent="1">
          <mxGeometry x="1080" y="140" width="120" height="60" as="geometry" />
        </mxCell>
        <mxCell id="Ej0qOqugrmB95WgVIae_-60" value="기둥" style="shape=process;whiteSpace=wrap;html=1;backgroundOutline=1;" vertex="1" parent="1">
          <mxGeometry x="1390" y="140" width="120" height="60" as="geometry" />
        </mxCell>
        <mxCell id="Ej0qOqugrmB95WgVIae_-62" value="Platform&lt;br&gt;(Movable)" style="shape=process;whiteSpace=wrap;html=1;backgroundOutline=1;" vertex="1" parent="1">
          <mxGeometry x="1140" y="230" width="120" height="60" as="geometry" />
        </mxCell>
      </root>
    </mxGraphModel>
  </diagram>
</mxfile>
